<svg width="284" height="52" viewBox="0 0 284 52" fill="none" xmlns="http://www.w3.org/2000/svg">
<path d="M0 6.19982C0.709302 4.24969 2.01163 2.94568 3.91861 2.3113C5.82558 1.67692 8.10465 1.30099 10.7442 1.207V36.192C10.7442 41.1848 10.4651 44.8971 9.89535 47.2937C9.32558 49.702 8.2907 50.9003 6.7907 50.9003C6.46512 50.9003 5.95349 50.865 5.26744 50.7945C4.5814 50.724 3.89535 50.3716 3.22093 49.7255C2.53488 49.0793 1.94186 48.022 1.4186 46.5536C0.895349 45.0733 0.639535 42.9352 0.639535 40.1275V35.2757H0V40.1275C0 41.408 0.0581395 42.7238 0.174419 44.0513C0.290698 45.3788 0.581395 46.6123 1.05814 47.7283C1.52326 48.8444 2.19767 49.749 3.06977 50.4421C3.94186 51.1352 5.12791 51.4759 6.63954 51.4759C8.43023 51.4759 9.94186 51.1822 11.1628 50.5831C12.3837 49.9839 13.3605 49.0676 14.093 47.8341C14.8256 46.6006 15.3372 45.0146 15.6512 43.088C15.9535 41.1613 16.1163 38.8587 16.1163 36.192V0.490387H0V6.19982Z" fill="#472917" style="fill:#472917;fill:color(display-p3 0.2771 0.1611 0.0890);fill-opacity:1;"/>
<path d="M39.7242 0.490387C38.3521 2.76946 36.9684 5.27175 35.5498 7.98549C34.1312 10.6992 32.7474 13.4717 31.3753 16.3029C30.0033 19.1342 28.7126 21.9654 27.4916 24.7966C26.2707 27.6278 25.1777 30.3298 24.2358 32.9026C23.387 35.1817 22.7126 37.3198 22.2242 39.2934C21.7242 41.267 21.387 43.041 21.2009 44.6152C20.8172 47.9046 21.5963 49.9722 23.5381 50.8298C23.7707 51.0647 23.9567 51.1939 24.1079 51.2174C24.2474 51.2409 24.4335 51.2762 24.6777 51.3232C25.48 51.3702 26.166 51.2409 26.7242 50.9355C27.2823 50.6301 27.7823 50.2071 28.2126 49.6902C28.6312 49.1616 29.0265 48.5272 29.3753 47.7636C29.7242 47 30.073 46.1659 30.3986 45.2613C30.9684 43.9808 31.5963 42.5828 32.3056 41.0791C33.0149 39.5754 33.9916 38.1774 35.2358 36.8616C36.48 35.5576 38.073 34.4063 40.0033 33.4313C41.9335 32.4562 44.4102 31.8218 47.4219 31.5399L55.4102 50.8885H61.3521L40.2126 0.490387H39.7126H39.7242ZM39.6544 32.9731C37.6777 33.9717 36.0614 35.1464 34.8172 36.5092C33.573 37.8602 32.5614 39.3052 31.8172 40.8324C31.0614 42.3596 30.3986 43.7811 29.8405 45.1203C29.2707 46.7885 28.6428 48.1513 27.9335 49.2321C27.2242 50.3129 26.166 50.7945 24.7591 50.7005C24.573 50.6066 24.4219 50.5478 24.294 50.5243C24.1777 50.5008 24.0033 50.4421 23.7591 50.3481C22.9102 50.0662 22.3288 49.4083 22.0265 48.3862C21.7242 47.3642 21.6195 46.1189 21.7126 44.6387C21.8986 43.1115 22.2474 41.3845 22.7358 39.4226C23.2358 37.4725 23.8986 35.3579 24.7474 33.0671C25.5033 31.023 26.3521 28.8731 27.294 26.641C28.2358 24.4089 29.2358 22.1534 30.294 19.8978C31.3521 17.6422 32.4335 15.3866 33.5498 13.1545C34.6544 10.9224 35.7474 8.7491 36.8405 6.65799L47.2242 31.0817C44.166 31.3636 41.6428 32.0098 39.666 33.0083L39.6544 32.9731Z" fill="#472917" style="fill:#472917;fill:color(display-p3 0.2771 0.1611 0.0890);fill-opacity:1;"/>
<path d="M96.9548 41.4785C96.4432 36.8616 95.5827 32.2095 94.385 27.5221C93.1873 22.8347 91.5246 18.535 89.4199 14.6348C88.385 12.5906 87.2455 10.6992 86.0013 8.96056C84.7571 7.22188 83.3966 5.71816 81.9199 4.46115C80.4432 3.20413 78.8385 2.22906 77.1292 1.53594C75.4083 0.842821 73.5943 0.502135 71.6641 0.502135H66.292V50.912H71.6641V0.983795C73.5478 0.983795 75.3152 1.32448 76.9897 2.0176C78.6525 2.71072 80.2222 3.67404 81.6757 4.90756C83.1292 6.14108 84.4664 7.60956 85.699 9.30125C86.9199 10.9929 88.0711 12.8608 89.1525 14.905C90.4664 17.4777 91.6059 20.2737 92.5711 23.2929C93.5362 26.3121 94.3385 29.4018 95.0013 32.5384C95.6641 35.6751 96.1525 38.8118 96.478 41.9249C96.8036 45.0381 96.9664 48.0338 96.9664 50.8885H102.339V0.490387H96.9664V41.4785H96.9548Z" fill="#472917" style="fill:#472917;fill:color(display-p3 0.2771 0.1611 0.0890);fill-opacity:1;"/>
<path d="M135.579 48.0455C133.649 49.5728 131.125 50.3246 128.021 50.3246H116.079V17.2663C116.602 19.3574 117.463 20.9786 118.66 22.1181C119.858 23.2577 121.184 24.221 122.614 25.0081C124.056 25.7952 125.497 26.5235 126.963 27.1814C128.428 27.851 129.672 28.7791 130.707 29.9657V24.3267C128.3 24.3267 126.184 24.174 124.346 23.8568C122.509 23.5513 120.974 22.964 119.753 22.1064C118.532 21.2488 117.614 20.0505 116.997 18.4998C116.381 16.9491 116.079 14.9637 116.079 12.5436V0.983795H121.87C124.032 0.983795 125.916 1.03079 127.521 1.12477C129.125 1.21875 130.567 1.43021 131.87 1.7709C133.16 2.09984 134.393 2.62849 135.544 3.34511C136.695 4.06172 137.916 5.0133 139.184 6.19982V0.490387H110.707V50.9003H138.765L140.393 40.3272C139.125 43.9456 137.521 46.5183 135.591 48.0338L135.579 48.0455Z" fill="#472917" style="fill:#472917;fill:color(display-p3 0.2771 0.1611 0.0890);fill-opacity:1;"/>
<path d="M177.081 29.015C175.686 27.758 174.093 26.642 172.279 25.6904C170.465 24.7388 168.593 23.8342 166.663 22.9766C162.325 20.9325 159 18.9354 156.663 16.9735C154.337 15.0234 152.767 13.1907 151.965 11.4755C151.163 9.76035 151.023 8.19789 151.535 6.7999C152.058 5.40191 153 4.23887 154.36 3.33429C155.965 2.19475 157.918 1.44289 160.221 1.09046C162.523 0.738023 164.907 0.937736 167.36 1.70134C169.814 2.46495 172.221 3.86294 174.604 5.91881C176.988 7.96293 179.069 10.8176 180.86 14.483V6.98786C179.872 5.31967 178.383 3.94518 176.407 2.85263C174.43 1.76008 172.256 0.97298 169.907 0.491319C167.546 0.0214067 165.139 -0.119567 162.663 0.103641C160.186 0.315102 157.942 0.914241 155.918 1.88931C153.895 2.86438 152.232 4.23887 150.93 6.00104C149.628 7.76322 148.988 9.97181 148.988 12.6386C148.988 14.6827 149.407 16.4801 150.256 18.0308C151.104 19.5815 152.232 20.9678 153.651 22.213C155.07 23.4465 156.663 24.5626 158.453 25.5377C160.244 26.5127 162.081 27.4291 163.965 28.2866C168.069 30.1898 171.279 32.0694 173.616 33.9256C175.953 35.7818 177.558 37.5322 178.453 39.1769C179.349 40.8216 179.628 42.3135 179.302 43.6763C178.976 45.0273 178.221 46.2138 177.035 47.2124C174.825 49.1155 172.244 50.1611 169.29 50.349C166.349 50.537 163.383 49.9379 160.418 48.5281C157.453 47.1301 154.639 44.9333 151.976 41.9611C149.314 38.9889 147.116 35.2883 145.372 30.8594V40.7863C147.349 43.3591 149.767 45.462 152.616 47.1066C155.465 48.7513 158.407 49.8791 161.453 50.5018C164.488 51.1244 167.442 51.2184 170.29 50.7837C173.139 50.3608 175.581 49.3505 177.604 47.788C178.872 46.7425 179.883 45.4854 180.604 44.0052C181.337 42.525 181.697 40.8216 181.697 38.8597C181.697 36.7686 181.279 34.9242 180.43 33.3265C179.581 31.7288 178.465 30.3073 177.07 29.0385L177.081 29.015Z" fill="#472917" style="fill:#472917;fill:color(display-p3 0.2771 0.1611 0.0890);fill-opacity:1;"/>
<path d="M223.37 46.8708C222.591 45.8017 221.858 44.5447 221.184 43.1232C220.498 41.69 219.8 40.198 219.103 38.6238C218.3 36.7676 217.486 34.8997 216.661 33.0201C215.835 31.1404 214.858 29.4487 213.73 27.9568C212.603 26.4531 211.207 25.243 209.556 24.315C207.905 23.3869 205.858 22.917 203.405 22.917C202.091 22.917 200.951 23.1637 200.01 23.6688C199.068 24.174 198.289 24.7261 197.684 25.3488C199.382 22.1181 201.358 19.0637 203.626 16.209C205.882 13.3542 208.405 10.3351 211.184 7.13965C211.23 7.13965 211.579 6.84595 212.242 6.24682C212.905 5.64768 213.742 4.97805 214.754 4.21444C215.765 3.45084 216.893 2.69898 218.149 1.97061C219.393 1.2305 220.637 0.748839 221.858 0.502135H210.126C210.591 0.831074 210.905 1.25399 211.044 1.7474C211.184 2.25256 211.207 2.79296 211.114 3.3921C211.021 3.99124 210.847 4.59037 210.579 5.21301C210.324 5.83564 210.021 6.44653 209.696 7.06916C208.893 8.5024 207.835 10.0179 206.51 11.6391C204.626 13.8829 202.893 16.0915 201.312 18.2766C199.73 20.4617 198.324 22.7525 197.068 25.1256C195.824 27.5104 194.765 30.0479 193.917 32.7616C193.068 35.4754 192.428 38.4711 192.01 41.7605V0.490387H186.637V50.9003H192.01C192.01 46.1894 192.37 42.0424 193.103 38.4711C193.835 34.8997 194.858 31.5986 196.172 28.5442C196.312 28.2152 196.568 27.7453 196.951 27.1462C197.324 26.547 197.812 25.9949 198.405 25.4662C198.998 24.9376 199.696 24.4794 200.521 24.0683C201.347 23.6688 202.3 23.4574 203.382 23.4574C205.405 23.4574 206.963 23.845 208.044 24.6321C209.126 25.4192 209.963 26.4531 210.556 27.7336C211.149 29.0141 211.568 30.4826 211.824 32.1273C212.079 33.7719 212.37 35.4519 212.672 37.1553C212.975 38.8705 213.417 40.5504 213.975 42.1951C214.533 43.8398 215.417 45.2966 216.591 46.5888C217.765 47.8693 219.37 48.9149 221.393 49.6902C223.417 50.4773 226.033 50.865 229.242 50.865V50.2894C228.021 50.2894 226.917 49.9839 225.951 49.3613C224.986 48.7387 224.114 47.8928 223.335 46.8238L223.37 46.8708Z" fill="#472917" style="fill:#472917;fill:color(display-p3 0.2771 0.1611 0.0890);fill-opacity:1;"/>
<path d="M239.589 0.490387H234.217V50.9003H239.589V0.490387Z" fill="#472917" style="fill:#472917;fill:color(display-p3 0.2771 0.1611 0.0890);fill-opacity:1;"/>
<path d="M278.622 0.490387V41.4785C278.11 36.8616 277.25 32.2095 276.052 27.5221C274.855 22.8347 273.192 18.535 271.087 14.6348C270.052 12.5906 268.913 10.6992 267.669 8.96056C266.424 7.22188 265.064 5.71816 263.587 4.46115C262.11 3.20413 260.506 2.22906 258.796 1.53594C257.087 0.842821 255.262 0.502135 253.331 0.502135H247.959V50.912H253.331V0.983795C255.215 0.983795 256.982 1.32448 258.657 2.0176C260.32 2.71072 261.889 3.67404 263.343 4.90756C264.796 6.14108 266.134 7.60956 267.366 9.30125C268.587 10.9929 269.738 12.8608 270.82 14.905C272.134 17.4777 273.273 20.2737 274.238 23.2929C275.203 26.3121 276.006 29.4018 276.669 32.5384C277.331 35.6751 277.82 38.8118 278.145 41.9249C278.471 45.0381 278.634 48.0338 278.634 50.8885H284.006V0.490387H278.634H278.622Z" fill="#472917" style="fill:#472917;fill:color(display-p3 0.2771 0.1611 0.0890);fill-opacity:1;"/>
</svg>
